<?xml version="1.0" encoding="iso-8859-1"?>
<!-- Uploaded to: SVG Repo, www.svgrepo.com, Generator: SVG Repo Mixer Tools -->
<svg fill="#000000" height="800px" width="800px" version="1.1" id="Layer_1" xmlns="http://www.w3.org/2000/svg" xmlns:xlink="http://www.w3.org/1999/xlink" 
	 viewBox="0 0 511.999 511.999" xml:space="preserve">
<g>
	<g>
		<path d="M114.747,377.671c0.01-0.005,0.018-0.01,0.027-0.014l306.735-56.805c0.012-0.041,0.015-0.049,0.029-0.09L296.401,195.625
			c-0.03,0-0.046,0-0.075,0L131.832,359.889c-7.91,7.899-20.703,7.964-28.692,0.146c-8.118-7.943-8.189-20.986-0.159-29.016
			l164.363-164.377c0-0.03,0-0.046,0-0.075L143.546,42.769c-0.041,0.012-0.049,0.015-0.09,0.027L85.041,348.892
			c-0.004,0.008-0.008,0.016-0.014,0.026c-4.049,4.015-10.329,10.278-10.618,10.568c-15.333,15.331-23.776,35.78-23.776,57.577
			s8.445,42.246,23.776,57.576l13.585,13.586c15.331,15.331,35.779,23.774,57.576,23.774c21.443,0,41.579-8.171,56.824-23.031
			c8.158-7.951,8.962-21.128,1.1-29.373c-7.969-8.358-21.212-8.479-29.334-0.358c-7.589,7.589-17.743,11.769-28.591,11.769
			c-10.848,0-21.001-4.18-28.59-11.768l-13.585-13.586c-7.589-7.589-11.769-17.742-11.769-28.59c0-10.848,4.181-21.001,11.769-28.59
			C103.707,388.161,110.757,381.564,114.747,377.671z"/>
	</g>
</g>
<g>
	<g>
		<polygon points="173.153,14.397 296.363,137.608 416.267,17.704 		"/>
	</g>
</g>
<g>
	<g>
		<polygon points="446.164,45.786 325.345,166.59 449.512,290.757 		"/>
	</g>
</g>
<g>
	<g>
		<path d="M447.982,14.986c-8.007-8.007-20.988-8.007-28.996,0l-2.719,2.719l5.999,0.082c0.984-0.165,1.995-0.273,3.02-0.287
			c5.917-0.082,11.246,2.35,15.031,6.272c3.812,3.785,6.163,9.046,6.081,14.839c-0.014,1.038-0.123,2.036-0.287,3.02l0.055,4.154
			l1.817-1.817C455.989,35.961,455.989,22.98,447.982,14.986z"/>
	</g>
</g>
<g>
	<g>
		<path d="M164.749,5.995c-8.007-7.994-20.988-7.994-28.982,0c-8.007,8.007-8.007,20.988,0,28.996l7.707,7.707l2.241-11.738
			c0.014-0.083,0.041-0.15,0.055-0.219c0.082-0.451,0.205-0.902,0.328-1.339c0.055-0.219,0.109-0.437,0.164-0.642
			c0.15-0.451,0.314-0.888,0.478-1.339c0.068-0.191,0.137-0.383,0.219-0.574c0.178-0.437,0.383-0.861,0.601-1.271
			c0.096-0.178,0.178-0.369,0.273-0.547c0.232-0.424,0.478-0.834,0.738-1.243c0.096-0.15,0.178-0.301,0.287-0.451
			c0.287-0.437,0.615-0.861,0.943-1.271c0.068-0.096,0.137-0.191,0.219-0.287c0.396-0.478,0.806-0.943,1.243-1.38
			c0.014-0.014,0.027-0.041,0.041-0.055c2.706-2.733,6.176-4.687,10.057-5.548c0.082-0.014,0.164-0.041,0.246-0.055
			c0.465-0.096,0.943-0.164,1.407-0.232c0.232-0.027,0.478-0.068,0.711-0.096c0.342-0.027,0.697-0.055,1.039-0.068
			c0.369-0.014,0.752-0.041,1.12-0.027c0.082,0,0.164-0.014,0.246-0.014l7.023,0.096L164.749,5.995z"/>
	</g>
</g>
<g>
	<g>
		<path d="M455.361,296.607l-5.848-5.848l0.041,3.471c0.027,0.137,0.068,0.26,0.096,0.383c2.118,11.123-5.179,21.863-16.301,23.981
			l-11.738,2.241l4.769,4.769c4.004,4.004,9.237,5.999,14.484,5.999s10.494-1.995,14.498-5.999
			C463.368,317.595,463.368,304.614,455.361,296.607z"/>
	</g>
</g>
</svg>