<?xml version="1.0" encoding="iso-8859-1"?>
<!-- Uploaded to: SVG Repo, www.svgrepo.com, Generator: SVG Repo Mixer Tools -->
<svg fill="#000000" height="800px" width="800px" version="1.1" id="Capa_1" xmlns="http://www.w3.org/2000/svg" xmlns:xlink="http://www.w3.org/1999/xlink" 
	 viewBox="0 0 490 490" xml:space="preserve">
<g>
	<g>
		<g>
			<path d="M393.65,226.3c-27.2,0-49.4-22.2-49.4-49.4c0,27.2-22.2,49.4-49.4,49.4c-27.2,0-49.8-22.2-49.8-49.4
				c0,27.2-22.2,49.4-49.4,49.4s-49.4-22.2-49.4-49.4c0,27.2-22.2,49.4-49.4,49.4s-50.2-22.2-50.2-49.4v283.9
				c0,15.9,13.2,29.2,29.2,29.2h338.3c15.9,0,29.2-13.2,29.2-29.2V176.9C443.35,204.2,421.25,226.3,393.65,226.3z M245.05,414.6
				c-67.7,0-118.6-24.5-118.6-57.2s50.9-57.2,118.6-57.2s118.6,24.5,118.6,57.2S312.75,414.6,245.05,414.6z"/>
			<path d="M324.35,176.9h39.7c0,16.3,15.1,34.2,38.1,28.8V51.3h-126.4v148.6C302.45,220.3,326.45,192.8,324.35,176.9z"/>
			<path d="M126.05,176.9h39.7c0,16.3,13.2,29.9,29.9,29.9c16.3,0,29.9-13.2,29.9-29.9h17.1V77c-0.4-42.4-34.6-77-77.4-77l0,0
				c-42.4,0-77,34.6-77,77v128.7C111.15,211.3,126.05,193.3,126.05,176.9z"/>
		</g>
	</g>
</g>
</svg>