<?xml version="1.0" encoding="iso-8859-1"?>
<!-- Uploaded to: SVG Repo, www.svgrepo.com, Generator: SVG Repo Mixer Tools -->
<svg fill="#000000" height="800px" width="800px" version="1.1" id="Layer_1" xmlns="http://www.w3.org/2000/svg" xmlns:xlink="http://www.w3.org/1999/xlink" 
	 viewBox="0 0 512.009 512.009" xml:space="preserve">
<g>
	<g>
		<g>
			<path d="M509.504,139.041l-85.333-85.333c-1.604-1.604-3.763-2.5-6.033-2.5h-102.4c-4.719,0-8.533,3.814-8.533,8.533
				c0,4.71,3.814,8.533,8.533,8.533h98.867l77.798,77.798L274.846,461.166l73.233-307.558h112.725c4.719,0,8.533-3.823,8.533-8.533
				c0-4.719-3.814-8.533-8.533-8.533h-98.867l36.634-36.634c3.337-3.336,3.337-8.738,0-12.066c-3.336-3.337-8.73-3.337-12.066,0
				l-45.167,45.167l-2.5-2.5c-3.336-3.336-8.73-3.336-12.066,0c-1.664,1.664-2.5,3.849-2.5,6.033H187.738
				c0-2.185-0.836-4.369-2.5-6.033c-3.337-3.336-8.73-3.336-12.066,0l-2.5,2.5l-45.167-45.167c-3.337-3.337-8.73-3.337-12.066,0
				c-3.337,3.328-3.337,8.73,0,12.066l36.634,36.634H51.204c-4.719,0-8.533,3.814-8.533,8.533c0,4.71,3.814,8.533,8.533,8.533
				H163.93l73.233,307.558L19.605,146.073l77.798-77.798h98.867c4.719,0,8.533-3.823,8.533-8.533c0-4.719-3.814-8.533-8.533-8.533
				h-102.4c-2.27,0-4.437,0.896-6.033,2.5L2.505,139.041c-2.918,2.91-3.336,7.492-0.99,10.88l247.467,358.4
				c0.452,0.657,1.007,1.212,1.604,1.707c0.171,0.137,0.341,0.23,0.521,0.35c0.521,0.375,1.084,0.691,1.69,0.939
				c0.222,0.085,0.444,0.188,0.683,0.256c0.811,0.256,1.647,0.435,2.526,0.435c0.879,0,1.715-0.179,2.526-0.435
				c0.239-0.068,0.461-0.162,0.683-0.256c0.606-0.247,1.169-0.563,1.698-0.939c0.171-0.12,0.341-0.213,0.512-0.35
				c0.597-0.495,1.143-1.05,1.604-1.707l247.467-358.4C512.841,146.534,512.422,141.951,509.504,139.041z M256.004,466.627
				l-74.53-313.02h149.06L256.004,466.627z"/>
			<path d="M228.681,59.741l-30.976,46.464c-2.261,3.379-1.809,7.893,1.067,10.769c2.884,2.867,7.381,3.311,10.769,1.067
				l46.464-30.985l46.464,30.985c1.442,0.964,3.098,1.434,4.736,1.434c2.202,0,4.386-0.853,6.033-2.5
				c2.876-2.876,3.328-7.39,1.067-10.769l-30.976-46.464l30.976-46.473c2.261-3.379,1.809-7.885-1.067-10.761
				c-2.884-2.893-7.39-3.328-10.769-1.067l-46.464,30.976L209.54,1.441c-3.379-2.253-7.885-1.818-10.769,1.067
				c-2.876,2.876-3.328,7.381-1.067,10.761L228.681,59.741z M246.037,55.005l-10.47-15.701l15.701,10.47
				c2.867,1.903,6.605,1.903,9.472,0l15.701-10.47l-10.47,15.701c-1.911,2.867-1.911,6.596,0,9.464l10.47,15.701L260.74,69.708
				c-1.434-0.956-3.089-1.434-4.736-1.434c-1.647,0-3.302,0.478-4.736,1.434L235.567,80.17l10.47-15.701
				C247.949,61.601,247.949,57.872,246.037,55.005z"/>
		</g>
	</g>
</g>
</svg>