<?xml version="1.0" encoding="utf-8"?>

<!-- Uploaded to: SVG Repo, www.svgrepo.com, Generator: SVG Repo Mixer Tools -->
<svg fill="#000000" height="800px" width="800px" version="1.1" id="Icons" xmlns="http://www.w3.org/2000/svg" xmlns:xlink="http://www.w3.org/1999/xlink" 
	 viewBox="0 0 32 32" xml:space="preserve">
<path d="M29,14h-2.2c-0.2-1.3-0.6-2.5-1.3-3.7c-0.7-1.3-0.5-3,0.6-4.1c0.2-0.2,0.3-0.4,0.3-0.7S26.4,5,26.2,4.8c-2-2-5.2-2-7.3-0.1
	c-1.1-0.4-2.3-0.6-3.4-0.6c-1.1-1.2-2.7-2-4.5-2C7.7,2,5,4.7,5,8c0,0.4,0.1,0.8,0.1,1.2C3.7,11.2,3,13.6,3,16c0,2.2,0.6,4.3,1.7,6.1
	l0.1,0.2c-0.1,0.1-0.2,0.1-0.3,0.1C4.2,22.5,4,22.3,4,22c0-0.6-0.4-1-1-1s-1,0.4-1,1c0,1.4,1.1,2.5,2.5,2.5c0.5,0,1-0.2,1.4-0.4
	l3.3,5.4C9.3,29.8,9.6,30,10,30h4c0.3,0,0.6-0.1,0.8-0.4c0.2-0.2,0.3-0.5,0.2-0.8L14.8,28c0.4,0,0.9,0,1.3,0L16,28.8
	c0,0.3,0,0.6,0.2,0.8c0.2,0.2,0.5,0.4,0.8,0.4h4c0.3,0,0.7-0.2,0.8-0.5l2-3.1c2.4-0.9,4.5-2.2,5.9-3.7c0.2-0.2,0.3-0.4,0.3-0.7V15
	C30,14.4,29.6,14,29,14z M11,4c1.9,0,3.5,1.3,3.9,3C12.2,7.2,9.7,8.5,8,10.7C7.4,9.9,7,9,7,8C7,5.8,8.8,4,11,4z"/>
</svg>