<?xml version="1.0" encoding="iso-8859-1"?>
<!-- Uploaded to: SVG Repo, www.svgrepo.com, Generator: SVG Repo Mixer Tools -->
<svg fill="#000000" height="800px" width="800px" version="1.1" id="Layer_1" xmlns="http://www.w3.org/2000/svg" xmlns:xlink="http://www.w3.org/1999/xlink" 
	 viewBox="0 0 512 512" xml:space="preserve">
<g>
	<g>
		<path d="M445.467,131.791c13.553-4.244,25.244-8.443,29.095-9.849c7.894-2.878,12.42-11.163,10.58-19.362
			c-11.564-51.543-72.007-74.26-119.816-51.859c-16.458-42.52-65.103-63.662-106.051-42.294
			c-6.793,3.552-10.301,11.266-8.509,18.717c2.489,10.344,5.268,21.245,8.764,31.742c-54.85-9.38-113.41,11.652-141.231,54.943
			c-5.722,8.916-1.804,20.898,8.144,24.666c27.008,10.225,56.049,15.956,87.9,17.273c-25.27,29.552-37.543,67.467-31.16,102.826
			c1.793,9.91,11.921,16.003,21.479,12.965c35.057-11.077,76.696-40.519,103.584-65.385c8.59,30.208,25.51,72.065,47.764,94.476
			c6.566,6.611,17.309,6.586,23.832-0.119c18.161-18.647,29.176-40.41,32.728-64.225c15.884,12.954,32.358,24.617,47.774,33.715
			c8.785,5.188,20.125,1.36,23.968-8.089C500.91,221.172,487.368,166.417,445.467,131.791z"/>
	</g>
</g>
<g>
	<g>
		<path d="M302.613,414.988c-0.34-30.806,2.363-59.964,8.781-90.425l0.006-0.017c1.436-6.852,3.117-13.497,4.834-20.128
			c-9.36-13.439-17.273-28.278-23.509-42.577c-21.545,15.498-49.556,32.653-77.98,41.635c-1.991,0.631-4.044,1.053-6.104,1.429
			c-13.866,35.284-23.588,70.997-30.272,109.715c-75.447,7.76-157.575,32.789-157.575,80.645c0,9.244,7.49,16.735,16.735,16.735
			h401.63c9.244,0,16.735-7.49,16.735-16.735C455.894,448.223,379.333,423.355,302.613,414.988z"/>
	</g>
</g>
</svg>