<?xml version="1.0" encoding="iso-8859-1"?>
<!-- Uploaded to: SVG Repo, www.svgrepo.com, Generator: SVG Repo Mixer Tools -->
<!DOCTYPE svg PUBLIC "-//W3C//DTD SVG 1.1//EN" "http://www.w3.org/Graphics/SVG/1.1/DTD/svg11.dtd">
<svg fill="#000000" height="800px" width="800px" version="1.1" id="Capa_1" xmlns="http://www.w3.org/2000/svg" xmlns:xlink="http://www.w3.org/1999/xlink" 
	 viewBox="0 0 192.778 192.778" xml:space="preserve">
<path d="M142.646,172.417v14.587c0,3.184-2.591,5.774-5.775,5.774H27.696c-3.184,0-5.774-2.591-5.774-5.774V36.136
	c0-3.184,2.59-5.774,5.774-5.774h12.436v129.038c0,7.178,5.839,13.018,13.017,13.018H142.646z M170.857,3.017v156.383
	c0,1.664-1.354,3.018-3.018,3.018H53.149c-1.664,0-3.017-1.354-3.017-3.018V3.017C50.132,1.354,51.486,0,53.149,0h114.69
	C169.503,0,170.857,1.354,170.857,3.017z M155.208,113.748c0-2.762-2.239-5-5-5H70.781c-2.761,0-5,2.238-5,5s2.239,5,5,5h79.427
	C152.969,118.748,155.208,116.51,155.208,113.748z M155.208,83.584c0-2.762-2.239-5-5-5H70.781c-2.761,0-5,2.238-5,5s2.239,5,5,5
	h79.427C152.969,88.584,155.208,86.346,155.208,83.584z M155.208,53.42c0-2.762-2.239-5-5-5H70.781c-2.761,0-5,2.238-5,5
	s2.239,5,5,5h79.427C152.969,58.42,155.208,56.182,155.208,53.42z M155.208,23.256c0-2.762-2.239-5-5-5H70.781c-2.761,0-5,2.238-5,5
	s2.239,5,5,5h79.427C152.969,28.256,155.208,26.018,155.208,23.256z"/>
</svg>