<?xml version="1.0" ?>
<!DOCTYPE svg  PUBLIC '-//W3C//DTD SVG 1.1//EN'  'http://www.w3.org/Graphics/SVG/1.1/DTD/svg11.dtd'>
<!-- Uploaded to: SVG Repo, www.svgrepo.com, Generator: SVG Repo Mixer Tools -->
<svg fill="#000000" width="800px" height="800px" viewBox="0 0 512 512" enable-background="new 0 0 512 512" id="Postage" version="1.1" xml:space="preserve" xmlns="http://www.w3.org/2000/svg" xmlns:xlink="http://www.w3.org/1999/xlink">
<g>
<g>
<path d="M188.384,246.404l-6.149-7.886L40.204,349.28V117.453l182.761,131.146c6.05,4.341,13.14,6.512,20.229,6.512    c7.089,0,14.179-2.172,20.229-6.512l73.54-52.773l-5.83-8.125l-73.54,52.773c-8.613,6.181-20.187,6.181-28.799,0L50.756,112.717    h384.871l-64.322,46.158l5.83,8.125l69.045-49.547v136.493h10V102.717H30.204V364.52h282.343v-10h-262.8L188.384,246.404z"/>
<rect height="9.999" transform="matrix(0.8124 -0.583 0.583 0.8124 -36.7787 239.8912)" width="17.167" x="345.885" y="172.11"/>
<path d="M329.273,365.313c1.916,3.744,4.146,7.369,6.629,10.775l8.081-5.891c-2.175-2.984-4.129-6.16-5.808-9.439L329.273,365.313    z"/>
<path d="M368.954,265.681l-4.561-8.899c-3.743,1.918-7.368,4.15-10.771,6.635l5.895,8.077    C362.5,269.316,365.675,267.361,368.954,265.681z"/>
<path d="M451.106,378.576l7.071,7.07c2.979-2.979,5.744-6.215,8.221-9.618l-8.086-5.884    C456.141,373.129,453.717,375.966,451.106,378.576z"/>
<path d="M464.115,360.693l8.906,4.546c1.918-3.757,3.549-7.693,4.85-11.701l-9.512-3.087    C467.222,353.959,465.793,357.404,464.115,360.693z"/>
<path d="M330.463,328.617c0-3.682,0.285-7.376,0.848-10.982l-9.881-1.541c-0.643,4.115-0.967,8.328-0.967,12.586l1.574,0.006    L330.463,328.617z"/>
<path d="M331.334,339.75l-9.877,1.564c0.658,4.166,1.654,8.307,2.957,12.308l9.509-3.097    C332.782,347.023,331.911,343.398,331.334,339.75z"/>
<path d="M433.235,391.587l4.551,8.904c3.747-1.915,7.372-4.143,10.778-6.622l-5.886-8.084    C439.694,387.957,436.518,389.91,433.235,391.587z"/>
<path d="M472.943,291.844c-1.918-3.742-4.152-7.365-6.64-10.769l-8.074,5.899c2.179,2.982,4.136,6.156,5.817,9.433    L472.943,291.844z"/>
<path d="M471.796,328.453v0.164c0,3.705-0.289,7.426-0.859,11.057l9.879,1.553c0.65-4.144,0.98-8.386,0.98-12.609v-0.164H471.796z    "/>
<path d="M470.913,317.406l9.876-1.572c-0.664-4.166-1.664-8.306-2.973-12.307l-9.504,3.108    C469.457,310.137,470.332,313.761,470.913,317.406z"/>
<path d="M364.545,400.529c3.758,1.915,7.695,3.545,11.704,4.844l3.082-9.514c-3.509-1.137-6.956-2.563-10.245-4.24    L364.545,400.529z"/>
<path d="M433.104,265.579l4.531-8.914c-3.76-1.911-7.699-3.537-11.709-4.831l-3.07,9.517    C426.363,262.483,429.813,263.906,433.104,265.579z"/>
<path d="M412.226,398.418l1.558,9.877c4.166-0.656,8.307-1.648,12.311-2.951l-3.092-9.51    C419.498,396.974,415.873,397.842,412.226,398.418z"/>
<path d="M344.13,385.697c2.981,2.977,6.22,5.74,9.623,8.215l5.879-8.09c-2.983-2.168-5.822-4.592-8.437-7.201L344.13,385.697z"/>
<path d="M401.006,247.95v10l0.123-0.001c3.669,0,7.352,0.283,10.945,0.842l1.535-9.881c-4.098-0.637-8.295-0.959-12.533-0.959    c-0.002,0-0.005,0-0.007,0H401.006z"/>
<path d="M442.564,271.365c2.987,2.166,5.828,4.586,8.443,7.191l7.059-7.082c-2.983-2.974-6.225-5.734-9.633-8.205L442.564,271.365    z"/>
<path d="M324.36,303.778l9.515,3.077c1.135-3.509,2.559-6.957,4.234-10.247l-8.912-4.536    C327.284,295.831,325.656,299.77,324.36,303.778z"/>
<path d="M379.185,261.422c3.501-1.143,7.126-2.016,10.772-2.596l-1.568-9.875c-4.165,0.661-8.307,1.659-12.308,2.965    L379.185,261.422z"/>
<path d="M351.098,278.71l-7.08-7.062c-2.976,2.982-5.738,6.223-8.21,9.627l8.093,5.875    C346.067,284.166,348.488,281.326,351.098,278.71z"/>
<path d="M390.109,398.43l-1.547,9.88c4.127,0.646,8.355,0.974,12.566,0.974h0.041l-0.041-10    C397.434,399.283,393.727,398.996,390.109,398.43z"/>
<path d="M459.538,328.84c0-32.207-26.202-58.408-58.409-58.408s-58.409,26.201-58.409,58.408c0,3.281,0.274,6.573,0.817,9.785    l9.859-1.664c-0.449-2.664-0.677-5.396-0.677-8.121c0-25.214,19.381-45.978,44.026-48.201v13.785h-0.219    c-11.049,0-20.039,8.844-20.039,19.713s8.99,19.713,20.039,19.713h0.219v20.721H376.57v10h20.176v12.474    c-18.833-1.706-35.145-14.294-41.393-32.409l-9.453,3.261c8.119,23.539,30.314,39.354,55.229,39.354    C433.336,387.25,459.538,361.047,459.538,328.84z M449.538,328.84c0,24.793-18.737,45.279-42.792,48.073V364.57h0.092    c11.415,0,20.701-9.135,20.701-20.361s-9.286-20.359-20.701-20.359h-0.092v-19.426h19.388v-10h-19.388v-13.656    C430.801,283.562,449.538,304.049,449.538,328.84z M406.746,333.85h0.092c5.9,0,10.701,4.646,10.701,10.359    s-4.801,10.361-10.701,10.361h-0.092V333.85z M396.527,323.85c-5.535,0-10.039-4.357-10.039-9.713s4.504-9.713,10.039-9.713h0.219    v19.426H396.527z"/>
<rect height="10" width="97.675" x="194.356" y="324.497"/>
</g>
</g>
</svg>