<?xml version="1.0" encoding="iso-8859-1"?>
<!-- Uploaded to: SVG Repo, www.svgrepo.com, Generator: SVG Repo Mixer Tools -->
<svg fill="#000000" version="1.1" id="Layer_1" xmlns="http://www.w3.org/2000/svg" xmlns:xlink="http://www.w3.org/1999/xlink" 
	 viewBox="0 0 295.24 295.24" xml:space="preserve">
<g>
	<g>
		<g>
			<rect x="185.714" y="0.001" width="9.524" height="9.524"/>
			<rect x="185.714" y="19.049" width="9.524" height="9.524"/>
			<rect x="195.238" y="9.525" width="9.524" height="9.524"/>
			<path d="M266.667,238.096v-28.571H152.381v-28.814c34.538-2.457,61.905-31.271,61.905-66.424
				c0-25.914-14.848-49.219-38.095-60.233V38.096h-23.81v-6.757c0-5.3,3.376-9.986,8.4-11.657c1.262-0.419,2.571-0.633,3.89-0.633
				h11.519V9.525h-11.519c-2.338,0-4.657,0.376-6.895,1.119c-8.924,2.971-14.919,11.286-14.919,20.695v6.757h-23.81v15.957
				C95.8,65.068,80.952,88.372,80.952,114.287c0,35.152,27.367,63.967,61.905,66.424v28.814H28.571v28.571H0v57.143h66.667v-57.143
				H38.095v-19.048h104.762v19.048h-28.571v57.143h66.667v-57.143h-28.571v-19.048h104.762v19.048h-28.571v57.143h66.667v-57.143
				H266.667z M57.143,247.62v38.095H9.524V247.62H57.143z M90.476,114.287c0-23.133,13.805-43.838,35.167-52.748l2.929-1.224V47.62
				h38.095v12.695l2.929,1.224c21.362,8.91,35.167,29.614,35.167,52.748c0,29.905-23.1,54.467-52.381,56.9v-9.281h-9.524v9.281
				C113.576,168.753,90.476,144.191,90.476,114.287z M171.429,247.62v38.095H123.81V247.62H171.429z M285.714,285.715h-47.619
				V247.62h47.619V285.715z"/>
			<path d="M152.381,152.382v-9.524c7.876,0,14.286-6.41,14.286-14.286v-4.762c0-7.876-6.41-14.286-14.286-14.286h-9.524
				c-2.624,0-4.762-2.133-4.762-4.762v-4.761c0-2.629,2.138-4.762,4.762-4.762h9.524c2.624,0,4.762,2.133,4.762,4.762h9.524
				c0-7.876-6.41-14.286-14.286-14.286v-9.524h-9.524v9.524c-7.876,0-14.286,6.41-14.286,14.286v4.762
				c0,7.876,6.41,14.286,14.286,14.286h9.524c2.624,0,4.762,2.133,4.762,4.762v4.762c0,2.629-2.138,4.762-4.762,4.762h-9.524
				c-2.624,0-4.762-2.133-4.762-4.762h-9.524c0,7.876,6.41,14.286,14.286,14.286v9.523H152.381z"/>
			<rect x="19.048" y="261.906" width="9.524" height="9.524"/>
			<rect x="38.095" y="261.906" width="9.524" height="9.524"/>
			<rect x="133.333" y="261.906" width="9.524" height="9.524"/>
			<rect x="152.381" y="261.906" width="9.524" height="9.524"/>
			<rect x="247.619" y="261.906" width="9.524" height="9.524"/>
			<rect x="266.667" y="261.906" width="9.524" height="9.524"/>
		</g>
	</g>
</g>
</svg>