<?xml version="1.0" encoding="utf-8"?>

<!DOCTYPE svg PUBLIC "-//W3C//DTD SVG 1.1//EN" "http://www.w3.org/Graphics/SVG/1.1/DTD/svg11.dtd">
<!-- Uploaded to: SVG Repo, www.svgrepo.com, Generator: SVG Repo Mixer Tools -->
<svg version="1.1" id="_x32_" xmlns="http://www.w3.org/2000/svg" xmlns:xlink="http://www.w3.org/1999/xlink" 
	 viewBox="0 0 512 512"  xml:space="preserve">
<style type="text/css">
	.st0{fill:#000000;}
</style>
<g>
	<path class="st0" d="M412.61,0H99.383C71.261,0,48.465,22.796,48.465,50.917v413.164c0,13.108,5.37,25.649,14.856,34.687
		c9.501,9.045,22.281,13.81,35.374,13.175l286.226-13.84v-0.008c10.651-0.09,20.869-2.285,30.168-6.222
		c14.251-6.028,26.329-16.066,34.881-28.719c8.552-12.645,13.564-27.987,13.564-44.367V50.917C463.535,22.796,440.731,0,412.61,0z
		 M433.949,418.788c-0.007,6.916-1.396,13.415-3.906,19.36c-3.764,8.904-10.098,16.537-18.046,21.9
		c-7.948,5.37-17.441,8.478-27.793,8.485c-6.513-0.008-12.959-1.562-19.151-4.698c-9.254-4.705-17.979-13.056-24.499-25.306
		c-6.506-12.234-10.763-28.36-10.771-48.184v-8.828c0-3.025-1.516-5.841-4.04-7.506c-2.525-1.658-5.722-1.942-8.493-0.74
		l-222.477,95.86c-3.704,1.591-7.962,1.224-11.33-0.994c-3.368-2.218-5.393-5.983-5.393-10.009V53.546
		c0-13.235,10.725-23.961,23.953-23.961H409.98c13.236,0,23.968,10.726,23.968,23.961V418.788z"/>
	<rect x="143.988" y="107.772" class="st0" width="224.016" height="29.585"/>
	<rect x="143.988" y="198.65" class="st0" width="224.016" height="29.586"/>
	<rect x="143.988" y="289.52" class="st0" width="224.016" height="29.585"/>
</g>
</svg>